# Blender v2.74 (sub 0) OBJ File: 'rail-pass.blend'
# www.blender.org
o PersonStanding_PersonSitting
v -0.260000 -0.150000 0.290000
v -0.260000 0.150000 0.290000
v 0.020000 -0.250000 0.110000
v -0.030000 -0.150000 0.280000
v -0.030000 0.150000 0.280000
v 0.020000 0.250000 0.110000
v 0.170000 0.250000 0.030000
v 0.170000 -0.250000 0.030000
v -0.230000 0.220000 -0.000000
v -0.000000 0.250000 -0.000000
v -0.230000 -0.220000 -0.000000
v -0.000000 -0.250000 -0.000000
v 0.070000 0.040000 0.100000
v 0.070000 -0.040000 0.100000
v -0.000000 0.020000 -0.000000
v -0.000000 -0.020000 -0.000000
v 0.200000 0.200000 -0.220000
v 0.070000 0.200000 -0.260000
v 0.220000 0.020000 -0.200000
v 0.050000 0.020000 -0.240000
v 0.200000 -0.200000 -0.220000
v 0.070000 -0.200000 -0.260000
v 0.220000 -0.020000 -0.200000
v 0.050000 -0.020000 -0.240000
v -0.310000 -0.210000 0.380000
v -0.310000 0.210000 0.380000
v 0.110000 -0.230000 0.340000
v 0.110000 0.230000 0.340000
v -0.320000 -0.250000 0.810000
v -0.320000 0.250000 0.810000
v 0.160000 -0.250000 0.790000
v 0.160000 0.250000 0.790000
v -0.090000 -0.000000 0.910000
v -0.270000 -0.000000 -0.000000
v 0.190000 -0.030000 0.030000
v 0.190000 0.030000 0.030000
vt 0.000000 0.000000
vt 0.960938 0.000000
vt 1.000000 1.000000
vt 0.000000 1.000000
vt 0.039062 0.000000
vn -0.100500 -0.703500 -0.703500
vn 0.000000 1.000000 0.000000
vn -0.982200 0.178600 -0.058500
vn -0.206800 0.955700 0.209300
vn -0.206800 -0.955700 0.209300
vn 0.000000 -1.000000 -0.000000
vn 0.903200 0.196900 0.381500
vn 0.988200 0.120300 0.094500
vn 0.000000 0.000000 -1.000000
vn -0.959000 0.076200 -0.272900
vn -0.959000 -0.076200 -0.272900
vn 0.819200 0.000000 -0.573500
vn 0.227000 -0.132400 -0.964800
vn 0.293300 -0.073300 -0.953200
vn 0.023300 -0.983300 0.180400
vn 0.058200 0.980200 -0.189100
vn 0.293300 0.073300 -0.953200
vn 0.227000 0.132400 -0.964800
vn 0.988200 -0.120300 0.094500
vn 0.053700 -0.983200 -0.174600
vn -0.001800 -0.999000 -0.044200
vn 0.393900 0.000000 -0.919100
vn -0.024500 0.825500 -0.563900
vn -0.874200 0.000000 -0.485600
vn -0.129300 -0.991300 0.023500
vn 0.993900 0.000000 -0.110400
vn -0.001800 0.999000 -0.044200
vn -0.999700 0.000000 -0.023200
vn 0.038100 -0.401200 0.915200
vn -0.129300 0.991300 0.023500
vn -0.024500 -0.825500 -0.563900
vn 0.432700 0.000000 0.901500
vn 0.038100 0.401200 0.915200
vn -0.398700 0.000000 0.917100
vn 0.874200 0.000000 0.485600
vn 0.022200 0.858800 0.511700
vn 0.469400 0.069900 0.880200
vn 0.469400 -0.069900 0.880200
vn -0.979000 0.000000 -0.204000
vn 0.506200 -0.046000 0.861200
vn 0.031800 0.983100 -0.180500
vn 0.506200 0.046000 0.861200
vn 0.033900 -0.980800 -0.192100
vn -0.100500 0.703500 -0.703500
vn -0.056300 -0.994000 -0.093800
vn 0.044700 0.997800 0.049200
vn -0.982200 -0.178600 -0.058500
vn -0.999400 0.000000 0.034500
vn -0.056300 0.994000 -0.093800
vn 0.022200 -0.858800 0.511700
vn 0.988100 0.089800 0.125000
vn 0.988100 -0.089800 0.125000
vn 0.903200 -0.196900 0.381500
vn 0.023300 0.983300 0.180400
vn 0.044700 -0.997800 0.049200
s off
f 4/1/1 27/1/1 25/1/1
f 6/1/2 7/1/2 10/1/2
f 9/1/3 34/1/3 2/1/3
f 9/1/4 2/1/4 6/1/4
f 11/1/5 3/1/5 1/1/5
f 8/1/6 3/1/6 12/1/6
f 13/1/7 6/1/7 5/1/7
f 17/1/8 7/1/8 19/1/8
f 9/1/9 10/1/9 34/1/9
f 18/1/10 20/1/10 10/1/10
f 22/1/11 12/1/11 24/1/11
f 24/1/2 16/1/2 23/1/2
f 16/1/12 15/1/12 13/1/12
f 19/1/13 20/1/13 18/1/13
f 18/1/14 17/1/14 19/1/14
f 13/1/15 15/1/15 36/1/15
f 7/1/16 17/1/16 18/1/16
f 23/1/17 21/1/17 22/1/17
f 22/1/18 24/1/18 23/1/18
f 21/1/19 23/1/19 8/1/19
f 12/1/20 22/1/20 21/1/20
f 31/1/21 29/1/21 27/1/21
f 4/1/22 5/1/22 28/1/22
f 5/1/23 2/1/23 26/1/23
f 1/1/24 25/1/24 26/1/24
f 3/1/25 11/1/25 12/1/25
f 28/2/26 32/3/26 31/4/26
f 32/1/27 28/1/27 30/1/27
f 25/1/28 29/1/28 30/1/28
f 29/1/29 31/1/29 33/1/29
f 15/1/9 16/1/9 34/1/9
f 9/1/30 6/1/30 10/1/30
f 1/1/31 4/1/31 25/1/31
f 31/1/32 32/1/32 33/1/32
f 32/1/33 30/1/33 33/1/33
f 30/1/34 29/1/34 33/1/34
f 4/1/35 13/1/35 5/1/35
f 2/1/36 5/1/36 6/1/36
f 13/1/37 7/1/37 6/1/37
f 13/1/35 4/1/35 14/1/35
f 14/1/38 3/1/38 8/1/38
f 20/1/39 15/1/39 10/1/39
f 11/1/9 34/1/9 12/1/9
f 34/1/9 16/1/9 12/1/9
f 15/1/6 20/1/6 19/1/6
f 14/1/12 16/1/12 13/1/12
f 35/1/40 14/1/40 8/1/40
f 10/1/41 7/1/41 18/1/41
f 7/1/42 13/1/42 36/1/42
f 8/1/43 12/1/43 21/1/43
f 27/1/22 4/1/22 28/1/22
f 28/1/44 5/1/44 26/1/44
f 2/1/24 1/1/24 26/1/24
f 27/5/26 28/2/26 31/4/26
f 29/1/45 25/1/45 27/1/45
f 26/1/28 25/1/28 30/1/28
f 23/1/46 16/1/46 35/1/46
f 12/1/39 16/1/39 24/1/39
f 11/1/47 1/1/47 34/1/47
f 34/1/48 1/1/48 2/1/48
f 28/1/49 26/1/49 30/1/49
f 10/1/9 15/1/9 34/1/9
f 3/1/50 4/1/50 1/1/50
f 19/1/51 7/1/51 36/1/51
f 23/1/52 35/1/52 8/1/52
f 4/1/53 3/1/53 14/1/53
f 16/1/54 14/1/54 35/1/54
f 36/1/55 15/1/55 19/1/55
