# Blender v2.74 (sub 0) OBJ File: 'rail-pass.blend'
# www.blender.org
mtllib rail-pass.mtl
o Cube.021_Cube.002
v -0.150000 0.730000 0.150000
v -0.150000 0.730000 -0.150000
v 0.150000 0.500000 0.250000
v 0.080000 0.700000 0.150000
v 0.080000 0.700000 -0.150000
v 0.150000 0.500000 -0.250000
v 0.160000 0.300000 -0.250000
v 0.160000 0.300000 0.250000
v -0.140000 0.510000 -0.250000
v -0.110000 0.300000 -0.250000
v -0.140000 0.510000 0.250000
v -0.110000 0.300000 0.250000
v 0.160000 0.270000 -0.040000
v 0.160000 0.270000 0.040000
v -0.100000 0.270000 -0.040000
v -0.100000 0.270000 0.040000
v 0.100000 0.000000 -0.210000
v -0.070000 0.000000 -0.210000
v 0.120000 0.000000 -0.020000
v -0.090000 0.000000 -0.020000
v 0.100000 0.000000 0.210000
v -0.070000 0.000000 0.210000
v 0.120000 0.000000 0.020000
v -0.090000 0.000000 0.020000
v -0.200000 0.830000 0.210000
v -0.200000 0.830000 -0.210000
v 0.220000 0.780000 0.230000
v 0.220000 0.780000 -0.230000
v -0.210000 1.260000 0.250000
v -0.210000 1.260000 -0.250000
v 0.270000 1.230000 0.250000
v 0.270000 1.230000 -0.250000
v 0.030000 1.350000 -0.000000
v -0.180000 0.510000 -0.000000
vt 0.000000 0.000000
vt 0.960938 0.000000
vt 1.000000 1.000000
vt 0.000000 1.000000
vt 0.039062 0.000000
vn -0.109200 -0.600800 0.791900
vn 0.000000 0.000000 -1.000000
vn -0.987100 0.026900 -0.157900
vn 0.015600 0.451500 -0.892100
vn 0.943900 0.330400 0.000000
vn 0.054200 0.415200 0.908100
vn 0.000000 0.000000 1.000000
vn 0.999100 0.043400 0.000000
vn 0.972700 -0.208200 -0.102400
vn -0.977800 -0.139700 -0.156400
vn -0.984000 -0.145000 -0.103600
vn -0.984000 -0.145000 0.103600
vn 0.000000 0.073900 -0.997300
vn 0.000000 -1.000000 0.000000
vn 0.000000 0.073900 0.997300
vn 0.000000 -0.132200 -0.991200
vn 0.972700 -0.208200 0.102400
vn 0.000000 -0.132200 0.991200
vn -0.002800 -0.044100 0.999000
vn 0.496100 -0.868200 0.000000
vn -0.070300 -0.538800 -0.839500
vn -0.894400 -0.447200 0.000000
vn 0.054200 0.415200 -0.908100
vn 0.993900 -0.110400 0.000000
vn -0.002800 -0.044100 -0.999000
vn -0.999700 -0.023200 0.000000
vn 0.057500 0.920500 0.386600
vn -0.948700 -0.316200 0.000000
vn -0.070300 -0.538800 0.839500
vn 0.447200 0.894400 0.000000
vn 0.057500 0.920500 -0.386600
vn -0.351100 0.936300 0.000000
vn 0.015600 0.451500 0.892100
vn 0.998700 0.049900 0.007100
vn 0.998700 0.049900 -0.007100
vn -0.998500 -0.033800 0.042700
vn -0.977800 -0.139700 0.156400
vn 0.988800 -0.148000 0.021200
vn 0.988800 -0.148000 -0.021200
vn -0.109200 -0.600800 -0.791900
vn -0.058500 -0.093800 0.993900
vn -0.998500 -0.033800 -0.042700
vn -0.987100 0.026900 0.157900
vn -0.990800 0.135100 0.000000
vn -0.058500 -0.093800 -0.993900
usemtl Material.001
s off
f 4/1/1 27/1/1 25/1/1
f 6/1/2 7/1/2 10/1/2
f 9/1/3 34/1/3 2/1/3
f 5/1/4 6/1/4 9/1/4
f 4/1/5 3/1/5 6/1/5
f 4/1/6 1/1/6 11/1/6
f 11/1/7 12/1/7 8/1/7
f 6/1/8 3/1/8 13/1/8
f 17/1/9 7/1/9 19/1/9
f 9/1/10 10/1/10 34/1/10
f 18/1/11 20/1/11 10/1/11
f 22/1/12 12/1/12 24/1/12
f 14/1/13 23/1/13 24/1/13
f 16/1/14 15/1/14 13/1/14
f 19/1/14 20/1/14 18/1/14
f 18/1/14 17/1/14 19/1/14
f 19/1/15 13/1/15 20/1/15
f 7/1/16 17/1/16 18/1/16
f 23/1/14 21/1/14 22/1/14
f 22/1/14 24/1/14 23/1/14
f 21/1/17 23/1/17 8/1/17
f 12/1/18 22/1/18 21/1/18
f 31/1/19 29/1/19 27/1/19
f 4/1/20 5/1/20 28/1/20
f 5/1/21 2/1/21 26/1/21
f 1/1/22 25/1/22 26/1/22
f 2/1/23 5/1/23 9/1/23
f 28/2/24 32/3/24 31/4/24
f 32/1/25 28/1/25 30/1/25
f 25/1/26 29/1/26 30/1/26
f 29/1/27 31/1/27 33/1/27
f 15/1/28 16/1/28 34/1/28
f 9/1/2 6/1/2 10/1/2
f 1/1/29 4/1/29 25/1/29
f 31/1/30 32/1/30 33/1/30
f 32/1/31 30/1/31 33/1/31
f 30/1/32 29/1/32 33/1/32
f 5/1/5 4/1/5 6/1/5
f 3/1/33 4/1/33 11/1/33
f 3/1/7 11/1/7 8/1/7
f 13/1/34 7/1/34 6/1/34
f 3/1/8 14/1/8 13/1/8
f 14/1/35 3/1/35 8/1/35
f 20/1/36 15/1/36 10/1/36
f 11/1/37 34/1/37 12/1/37
f 34/1/28 16/1/28 12/1/28
f 16/1/13 14/1/13 24/1/13
f 14/1/14 16/1/14 13/1/14
f 23/1/38 14/1/38 8/1/38
f 10/1/16 7/1/16 18/1/16
f 7/1/39 13/1/39 19/1/39
f 8/1/18 12/1/18 21/1/18
f 27/1/20 4/1/20 28/1/20
f 28/1/40 5/1/40 26/1/40
f 2/1/22 1/1/22 26/1/22
f 27/5/24 28/2/24 31/4/24
f 29/1/41 25/1/41 27/1/41
f 26/1/26 25/1/26 30/1/26
f 13/1/15 15/1/15 20/1/15
f 12/1/42 16/1/42 24/1/42
f 11/1/43 1/1/43 34/1/43
f 34/1/44 1/1/44 2/1/44
f 28/1/45 26/1/45 30/1/45
f 10/1/28 15/1/28 34/1/28
