# Blender v2.74 (sub 0) OBJ File: 'rail-pass.blend'
# www.blender.org
o Cube.021_PersonStanding
v -0.150000 -0.150000 0.810000
v -0.150000 0.150000 0.810000
v 0.150000 -0.250000 0.560000
v 0.080000 -0.150000 0.780000
v 0.080000 0.150000 0.780000
v 0.150000 0.250000 0.560000
v 0.160000 0.250000 0.330000
v 0.160000 -0.250000 0.330000
v -0.140000 0.250000 0.570000
v -0.110000 0.250000 0.330000
v -0.140000 -0.250000 0.570000
v -0.110000 -0.250000 0.330000
v 0.160000 0.040000 0.300000
v 0.160000 -0.040000 0.300000
v -0.100000 0.040000 0.300000
v -0.100000 -0.040000 0.300000
v 0.100000 0.210000 0.000000
v -0.070000 0.210000 0.000000
v 0.120000 0.020000 0.000000
v -0.090000 0.020000 0.000000
v 0.100000 -0.210000 0.000000
v -0.070000 -0.210000 0.000000
v 0.120000 -0.020000 0.000000
v -0.090000 -0.020000 0.000000
v -0.200000 -0.210000 0.920000
v -0.200000 0.210000 0.920000
v 0.220000 -0.230000 0.870000
v 0.220000 0.230000 0.870000
v -0.210000 -0.250000 1.400000
v -0.210000 0.250000 1.400000
v 0.270000 -0.250000 1.370000
v 0.270000 0.250000 1.370000
v 0.030000 0.000000 1.500000
v -0.180000 0.000000 0.570000
vt 0.000000 0.000000
vt 0.960938 0.000000
vt 1.000000 1.000000
vt 0.000000 1.000000
vt 0.039062 0.000000
vn -0.106100 -0.819400 -0.563300
vn 0.000000 1.000000 0.000000
vn -0.987100 0.157900 0.024700
vn 0.014400 0.908500 0.417600
vn 0.952900 0.000000 0.303200
vn 0.050300 -0.921200 0.385900
vn 0.000000 -1.000000 -0.000000
vn 0.999300 0.000000 0.038400
vn 0.976400 0.102800 -0.190000
vn -0.980000 0.156800 -0.122500
vn -0.985800 0.103800 -0.132100
vn -0.985800 -0.103800 -0.132100
vn 0.000000 0.997800 0.066500
vn 0.000000 0.000000 -1.000000
vn 0.000000 -0.997800 0.066500
vn 0.000000 0.992700 -0.120300
vn 0.976400 -0.102800 -0.190000
vn 0.000000 -0.992700 -0.120300
vn -0.002500 -0.999200 -0.039700
vn 0.540800 0.000000 -0.841200
vn -0.065300 0.863200 -0.500500
vn -0.910400 0.000000 -0.413800
vn 0.050300 0.921200 0.385900
vn 0.995000 0.000000 -0.099500
vn -0.002500 0.999200 -0.039700
vn -0.999800 0.000000 -0.020800
vn 0.056700 -0.417200 0.907000
vn -0.958800 0.000000 -0.284100
vn -0.065300 -0.863200 -0.500500
vn 0.476300 0.000000 0.879300
vn 0.056700 0.417200 0.907000
vn -0.384600 0.000000 0.923100
vn 0.014400 -0.908500 0.417600
vn 0.999000 -0.006200 0.043400
vn 0.999000 0.006200 0.043400
vn -0.998600 -0.043200 -0.030400
vn -0.980000 -0.156800 -0.122500
vn -0.958600 0.005000 -0.284800
vn 0.990900 -0.019100 -0.133400
vn 0.990900 0.019100 -0.133400
vn -0.106100 0.819400 -0.563300
vn -0.057400 -0.994800 -0.084100
vn -0.998600 0.043200 -0.030400
vn -0.987100 -0.157900 0.024700
vn -0.992300 0.000000 0.124000
vn -0.057400 0.994800 -0.084100
vn -0.958600 -0.005000 -0.284800
s off
f 4/1/1 27/1/1 25/1/1
f 6/1/2 7/1/2 10/1/2
f 9/1/3 34/1/3 2/1/3
f 5/1/4 6/1/4 9/1/4
f 4/1/5 3/1/5 6/1/5
f 4/1/6 1/1/6 11/1/6
f 11/1/7 12/1/7 8/1/7
f 6/1/8 3/1/8 13/1/8
f 17/1/9 7/1/9 19/1/9
f 9/1/10 10/1/10 34/1/10
f 18/1/11 20/1/11 10/1/11
f 22/1/12 12/1/12 24/1/12
f 14/1/13 23/1/13 24/1/13
f 16/1/14 15/1/14 13/1/14
f 19/1/14 20/1/14 18/1/14
f 18/1/14 17/1/14 19/1/14
f 19/1/15 13/1/15 20/1/15
f 7/1/16 17/1/16 18/1/16
f 23/1/14 21/1/14 22/1/14
f 22/1/14 24/1/14 23/1/14
f 21/1/17 23/1/17 8/1/17
f 12/1/18 22/1/18 21/1/18
f 31/1/19 29/1/19 27/1/19
f 4/1/20 5/1/20 28/1/20
f 5/1/21 2/1/21 26/1/21
f 1/1/22 25/1/22 26/1/22
f 2/1/23 5/1/23 9/1/23
f 28/2/24 32/3/24 31/4/24
f 32/1/25 28/1/25 30/1/25
f 25/1/26 29/1/26 30/1/26
f 29/1/27 31/1/27 33/1/27
f 15/1/28 16/1/28 34/1/28
f 9/1/2 6/1/2 10/1/2
f 1/1/29 4/1/29 25/1/29
f 31/1/30 32/1/30 33/1/30
f 32/1/31 30/1/31 33/1/31
f 30/1/32 29/1/32 33/1/32
f 5/1/5 4/1/5 6/1/5
f 3/1/33 4/1/33 11/1/33
f 3/1/7 11/1/7 8/1/7
f 13/1/34 7/1/34 6/1/34
f 3/1/8 14/1/8 13/1/8
f 14/1/35 3/1/35 8/1/35
f 20/1/36 15/1/36 10/1/36
f 11/1/37 34/1/37 12/1/37
f 34/1/38 16/1/38 12/1/38
f 16/1/13 14/1/13 24/1/13
f 14/1/14 16/1/14 13/1/14
f 23/1/39 14/1/39 8/1/39
f 10/1/16 7/1/16 18/1/16
f 7/1/40 13/1/40 19/1/40
f 8/1/18 12/1/18 21/1/18
f 27/1/20 4/1/20 28/1/20
f 28/1/41 5/1/41 26/1/41
f 2/1/22 1/1/22 26/1/22
f 27/5/24 28/2/24 31/4/24
f 29/1/42 25/1/42 27/1/42
f 26/1/26 25/1/26 30/1/26
f 13/1/15 15/1/15 20/1/15
f 12/1/43 16/1/43 24/1/43
f 11/1/44 1/1/44 34/1/44
f 34/1/45 1/1/45 2/1/45
f 28/1/46 26/1/46 30/1/46
f 10/1/47 15/1/47 34/1/47
