# Blender v2.74 (sub 0) OBJ File: 'rail-pass.blend'
# www.blender.org
o Cube.022_Train
v 0.000000 1.000000 0.300000
v 0.300000 3.000000 0.000000
v 0.400000 1.000000 0.300000
v 0.000000 2.900000 0.800000
v 0.000000 1.400000 0.800000
v 0.300000 1.000000 0.000000
v 0.000000 0.000000 0.000000
v 1.500000 3.000000 0.000000
v 1.500000 0.000000 0.000000
v 0.000000 2.900000 1.800000
v 0.000000 1.400000 1.800000
v 0.000000 1.000000 0.000000
v 0.000000 0.700000 2.000000
v 0.400000 0.000000 2.500000
v 0.400000 0.700000 2.400000
v 0.400000 0.000000 2.400000
v 0.400000 0.700000 2.500000
v 0.400000 3.000000 0.300000
v 0.000000 0.000000 2.000000
v 0.000000 0.000000 1.800000
v 0.000000 0.100000 1.700000
v 0.000000 0.600000 1.700000
v 0.000000 0.100000 0.700000
v 0.400000 3.000000 2.400000
v 0.000000 0.600000 0.700000
v 0.400000 3.000000 2.500000
v 0.000000 0.700000 1.800000
v 0.000000 0.700000 0.000000
v 0.000000 5.000000 0.300000
v 0.400000 5.000000 0.300000
v 0.000000 3.100000 0.800000
v 0.000000 4.600000 0.800000
v 0.300000 5.000000 0.000000
v 0.000000 6.000000 0.000000
v 1.500000 6.000000 0.000000
v 0.000000 3.100000 1.800000
v 0.000000 4.600000 1.800000
v 0.000000 5.000000 0.000000
v 0.000000 5.300000 2.000000
v 0.400000 6.000000 2.500000
v 0.400000 5.300000 2.400000
v 0.400000 6.000000 2.400000
v 0.400000 5.300000 2.500000
v 0.000000 3.000000 0.300000
v 0.000000 6.000000 2.000000
v 0.000000 6.000000 1.800000
v 0.000000 5.900000 1.700000
v 0.000000 5.400000 1.700000
v 0.000000 3.000000 2.000000
v 0.000000 5.900000 0.700000
v 0.000000 5.400000 0.700000
v 0.000000 5.300000 1.800000
v 0.000000 5.300000 0.000000
v 0.000000 3.000000 0.800000
v 0.000000 3.000000 1.800000
v 1.600000 0.000000 2.500000
v 1.600000 0.700000 2.500000
v 1.600000 3.000000 2.500000
v 1.600000 6.000000 2.500000
v 1.600000 5.300000 2.500000
vt 0.000000 0.000000
vn 0.948700 0.000000 -0.316200
vn 1.000000 0.000000 0.000000
vn 0.000000 0.000000 1.000000
vn 0.707100 0.000000 -0.707100
vn 0.000000 -1.000000 0.000000
vn 0.000000 1.000000 0.000000
vn 0.000000 0.000000 -1.000000
s off
f 3/1/1 6/1/1 2/1/1
f 27/1/2 1/1/2 5/1/2
f 6/1/3 9/1/3 8/1/3
f 15/1/2 17/1/2 16/1/2
f 13/1/4 15/1/4 19/1/4
f 11/1/2 10/1/2 13/1/2
f 11/1/2 13/1/2 27/1/2
f 5/1/2 1/1/2 4/1/2
f 2/1/3 6/1/3 8/1/3
f 34/1/3 33/1/3 35/1/3
f 28/1/3 7/1/3 6/1/3
f 1/1/5 12/1/5 6/1/5
f 20/1/2 21/1/2 22/1/2
f 15/1/4 16/1/4 19/1/4
f 17/1/2 14/1/2 16/1/2
f 22/1/2 25/1/2 27/1/2
f 23/1/2 7/1/2 25/1/2
f 1/1/3 3/1/3 18/1/3
f 24/1/2 26/1/2 17/1/2
f 18/1/1 3/1/1 2/1/1
f 15/1/2 24/1/2 17/1/2
f 13/1/2 19/1/2 20/1/2
f 25/1/2 28/1/2 27/1/2
f 3/1/5 1/1/5 6/1/5
f 12/1/3 28/1/3 6/1/3
f 7/1/2 28/1/2 25/1/2
f 20/1/2 22/1/2 27/1/2
f 1/1/2 28/1/2 12/1/2
f 13/1/2 20/1/2 27/1/2
f 28/1/2 1/1/2 27/1/2
f 11/1/2 27/1/2 5/1/2
f 23/1/2 21/1/2 20/1/2
f 7/1/2 23/1/2 20/1/2
f 52/1/2 32/1/2 29/1/2
f 41/1/2 42/1/2 43/1/2
f 39/1/4 45/1/4 41/1/4
f 37/1/2 39/1/2 36/1/2
f 37/1/2 52/1/2 39/1/2
f 32/1/2 31/1/2 29/1/2
f 7/1/3 9/1/3 6/1/3
f 53/1/3 33/1/3 34/1/3
f 29/1/6 33/1/6 38/1/6
f 46/1/2 48/1/2 47/1/2
f 41/1/4 45/1/4 42/1/4
f 49/1/2 55/1/2 36/1/2
f 43/1/2 42/1/2 40/1/2
f 48/1/2 52/1/2 51/1/2
f 50/1/2 51/1/2 34/1/2
f 36/1/2 39/1/2 49/1/2
f 29/1/2 31/1/2 44/1/2
f 39/1/4 41/1/4 49/1/4
f 39/1/2 46/1/2 45/1/2
f 51/1/2 52/1/2 53/1/2
f 30/1/6 33/1/6 29/1/6
f 38/1/3 33/1/3 53/1/3
f 34/1/2 51/1/2 53/1/2
f 46/1/2 52/1/2 48/1/2
f 29/1/2 38/1/2 53/1/2
f 39/1/2 52/1/2 46/1/2
f 53/1/2 52/1/2 29/1/2
f 37/1/2 32/1/2 52/1/2
f 36/1/2 55/1/2 54/1/2
f 31/1/2 54/1/2 44/1/2
f 31/1/2 36/1/2 54/1/2
f 50/1/2 46/1/2 47/1/2
f 34/1/2 46/1/2 50/1/2
f 49/1/2 10/1/2 55/1/2
f 10/1/2 49/1/2 13/1/2
f 1/1/2 44/1/2 4/1/2
f 49/1/4 24/1/4 15/1/4
f 44/1/3 1/1/3 18/1/3
f 13/1/4 49/1/4 15/1/4
f 10/1/2 54/1/2 55/1/2
f 4/1/2 44/1/2 54/1/2
f 4/1/2 54/1/2 10/1/2
f 30/1/1 2/1/1 33/1/1
f 33/1/3 8/1/3 35/1/3
f 2/1/3 8/1/3 33/1/3
f 29/1/3 18/1/3 30/1/3
f 49/1/4 41/1/4 24/1/4
f 24/1/2 43/1/2 26/1/2
f 18/1/1 2/1/1 30/1/1
f 44/1/3 18/1/3 29/1/3
f 41/1/2 43/1/2 24/1/2
f 43/1/7 60/1/7 58/1/7
f 40/1/7 59/1/7 60/1/7
f 26/1/7 58/1/7 57/1/7
f 17/1/7 57/1/7 56/1/7
f 26/1/7 43/1/7 58/1/7
f 43/1/7 40/1/7 60/1/7
f 17/1/7 26/1/7 57/1/7
f 14/1/7 17/1/7 56/1/7
